<svg xmlns="http://www.w3.org/2000/svg" xmlns:xlink="http://www.w3.org/1999/xlink" version="1.1" x="0px" y="0px" viewBox="0 0 100 68.775" enable-background="new 0 0 100 55.02" xml:space="preserve"><path fill="#000000" d="M2.697,27.432c0,0,27.171-21.663,46.623-21.663c19.454,0,47.18,21.663,47.18,21.663  S69.302,48.51,50.21,48.51C30.967,48.51,14.44,35.385,2.697,27.432z M27.726,25.343l6.35,7.092l0.99,1.105l3.204-2.868l4.994-4.471  L37.828,25.9c0.312-2.737,1.585-5.375,3.795-7.354c4.787-4.285,12.167-3.877,16.451,0.909c4.286,4.787,3.879,12.166-0.908,16.451  c-2.388,2.139-5.421,3.106-8.393,2.947l-0.25,4.523c4.129,0.222,8.346-1.123,11.665-4.096c6.647-5.951,7.214-16.201,1.262-22.848  c-5.951-6.647-16.202-7.213-22.849-1.262c-3.14,2.812-4.921,6.582-5.301,10.479L27.726,25.343z M49.095,22.01  c-2.433,0-4.406,1.972-4.406,4.405c0,2.433,1.973,4.405,4.406,4.405c2.433,0,4.405-1.973,4.405-4.405  C53.5,23.982,51.527,22.01,49.095,22.01z"/><text x="0" y="70.02000000000001" fill="#000000" font-size="5px" font-weight="bold" font-family="'Helvetica Neue', Helvetica, Arial-Unicode, Arial, Sans-serif">Created by Joshua C. Harris</text><text x="0" y="75.02000000000001" fill="#000000" font-size="5px" font-weight="bold" font-family="'Helvetica Neue', Helvetica, Arial-Unicode, Arial, Sans-serif">from the Noun Project</text></svg>